STARTFONT 2.1
COMMENT Recovered from arc.ast's:MEDFNT AST (MIT CADR AST source recovered from ARC!!!)
FONT MIT-CADR-MEDFNT
SIZE 13 72 72
FONTBOUNDINGBOX 8 13 0 -2
STARTPROPERTIES 2
FONT_ASCENT 11
FONT_DESCENT 2
ENDPROPERTIES
CHARS 122
STARTCHAR C0001
ENCODING -1 1
SWIDTH 692 0
DWIDTH 9 0
BBX 5 13 1 -2
BITMAP
00
20
20
20
20
20
20
A8
70
20
00
00
00
ENDCHAR
STARTCHAR C0002
ENCODING -1 2
SWIDTH 692 0
DWIDTH 9 0
BBX 7 13 0 -2
BITMAP
00
00
00
00
22
54
88
88
88
54
22
00
00
ENDCHAR
STARTCHAR C0003
ENCODING -1 3
SWIDTH 692 0
DWIDTH 9 0
BBX 6 13 1 -2
BITMAP
00
38
44
44
84
F8
84
84
84
F8
80
80
80
ENDCHAR
STARTCHAR C0004
ENCODING -1 4
SWIDTH 692 0
DWIDTH 9 0
BBX 7 13 0 -2
BITMAP
00
00
00
00
00
10
28
44
82
00
00
00
00
ENDCHAR
STARTCHAR C0005
ENCODING -1 5
SWIDTH 692 0
DWIDTH 9 0
BBX 7 13 0 -2
BITMAP
00
00
00
00
FE
02
02
00
00
00
00
00
00
ENDCHAR
STARTCHAR C0006
ENCODING -1 6
SWIDTH 692 0
DWIDTH 9 0
BBX 5 13 1 -2
BITMAP
00
00
00
00
38
40
80
F8
80
40
38
00
00
ENDCHAR
STARTCHAR C0007
ENCODING -1 7
SWIDTH 692 0
DWIDTH 9 0
BBX 7 13 0 -2
BITMAP
00
00
00
00
FE
44
44
44
44
44
44
00
00
ENDCHAR
STARTCHAR C0008
ENCODING -1 8
SWIDTH 692 0
DWIDTH 9 0
BBX 7 13 0 -2
BITMAP
80
40
40
20
10
10
28
24
44
42
82
00
00
ENDCHAR
STARTCHAR C000B
ENCODING -1 11
SWIDTH 692 0
DWIDTH 9 0
BBX 5 13 1 -2
BITMAP
00
20
70
A8
20
20
20
20
20
20
00
00
00
ENDCHAR
STARTCHAR C000E
ENCODING -1 14
SWIDTH 692 0
DWIDTH 9 0
BBX 7 13 0 -2
BITMAP
00
00
00
00
6C
92
92
92
92
6C
00
00
00
ENDCHAR
STARTCHAR C000F
ENCODING -1 15
SWIDTH 692 0
DWIDTH 9 0
BBX 7 13 0 -2
BITMAP
7C
C6
02
02
02
7E
C2
82
82
C6
7C
00
00
ENDCHAR
STARTCHAR C0010
ENCODING -1 16
SWIDTH 692 0
DWIDTH 9 0
BBX 7 13 0 -2
BITMAP
00
00
00
7E
C0
80
80
C0
7E
00
00
00
00
ENDCHAR
STARTCHAR C0011
ENCODING -1 17
SWIDTH 692 0
DWIDTH 9 0
BBX 7 13 0 -2
BITMAP
00
00
00
FC
06
02
02
06
FC
00
00
00
00
ENDCHAR
STARTCHAR C0012
ENCODING -1 18
SWIDTH 692 0
DWIDTH 9 0
BBX 7 13 0 -2
BITMAP
7C
C6
82
82
82
82
82
82
82
82
82
00
00
ENDCHAR
STARTCHAR C0013
ENCODING -1 19
SWIDTH 692 0
DWIDTH 9 0
BBX 7 13 0 -2
BITMAP
82
82
82
82
82
82
82
82
82
C6
7C
00
00
ENDCHAR
STARTCHAR C0014
ENCODING -1 20
SWIDTH 692 0
DWIDTH 9 0
BBX 7 13 0 -2
BITMAP
82
82
82
7C
44
44
28
28
28
10
10
00
00
ENDCHAR
STARTCHAR C0015
ENCODING -1 21
SWIDTH 692 0
DWIDTH 9 0
BBX 7 13 0 -2
BITMAP
FE
02
02
02
02
7E
02
02
02
02
FE
00
00
ENDCHAR
STARTCHAR C0016
ENCODING -1 22
SWIDTH 692 0
DWIDTH 9 0
BBX 7 13 0 -2
BITMAP
00
00
00
38
44
AA
92
AA
44
38
00
00
00
ENDCHAR
STARTCHAR C0017
ENCODING -1 23
SWIDTH 692 0
DWIDTH 9 0
BBX 8 13 0 -2
BITMAP
00
00
00
24
42
FF
42
24
00
00
00
00
00
ENDCHAR
STARTCHAR C0018
ENCODING -1 24
SWIDTH 692 0
DWIDTH 9 0
BBX 7 13 0 -2
BITMAP
00
00
00
00
00
00
00
00
00
00
00
00
FE
ENDCHAR
STARTCHAR C0019
ENCODING -1 25
SWIDTH 692 0
DWIDTH 9 0
BBX 7 13 0 -2
BITMAP
00
00
00
00
08
04
FE
04
08
00
00
00
00
ENDCHAR
STARTCHAR C001A
ENCODING -1 26
SWIDTH 692 0
DWIDTH 9 0
BBX 7 13 0 -2
BITMAP
00
04
04
08
FE
10
20
FE
40
40
80
00
00
ENDCHAR
STARTCHAR C001B
ENCODING -1 27
SWIDTH 692 0
DWIDTH 9 0
BBX 7 13 0 -2
BITMAP
00
00
00
00
9C
72
00
00
00
00
00
00
00
ENDCHAR
STARTCHAR C001C
ENCODING -1 28
SWIDTH 692 0
DWIDTH 9 0
BBX 6 13 0 -2
BITMAP
04
08
10
20
40
80
40
20
10
08
04
00
FC
ENDCHAR
STARTCHAR C001D
ENCODING -1 29
SWIDTH 692 0
DWIDTH 9 0
BBX 6 13 1 -2
BITMAP
80
40
20
10
08
04
08
10
20
40
80
00
FC
ENDCHAR
STARTCHAR C001E
ENCODING -1 30
SWIDTH 692 0
DWIDTH 9 0
BBX 7 13 0 -2
BITMAP
00
00
FE
00
00
FE
00
00
FE
00
00
00
00
ENDCHAR
STARTCHAR C001F
ENCODING -1 31
SWIDTH 692 0
DWIDTH 9 0
BBX 7 13 0 -2
BITMAP
00
00
00
00
00
82
44
28
10
00
00
00
00
ENDCHAR
STARTCHAR C0020
ENCODING -1 32
SWIDTH 692 0
DWIDTH 9 0
BBX 1 13 0 -2
BITMAP
00
00
00
00
00
00
00
00
00
00
00
00
00
ENDCHAR
STARTCHAR C0021
ENCODING -1 33
SWIDTH 692 0
DWIDTH 9 0
BBX 1 13 3 -2
BITMAP
80
80
80
80
80
80
80
00
00
80
80
00
00
ENDCHAR
STARTCHAR C0022
ENCODING -1 34
SWIDTH 692 0
DWIDTH 9 0
BBX 5 13 1 -2
BITMAP
D8
D8
50
50
00
00
00
00
00
00
00
00
00
ENDCHAR
STARTCHAR C0023
ENCODING -1 35
SWIDTH 692 0
DWIDTH 9 0
BBX 7 13 0 -2
BITMAP
00
00
44
44
FE
44
44
FE
44
44
00
00
00
ENDCHAR
STARTCHAR C0024
ENCODING -1 36
SWIDTH 692 0
DWIDTH 9 0
BBX 7 13 0 -2
BITMAP
10
7C
D6
90
D0
7C
16
12
D6
7C
10
00
00
ENDCHAR
STARTCHAR C0025
ENCODING -1 37
SWIDTH 692 0
DWIDTH 9 0
BBX 7 13 0 -2
BITMAP
60
90
92
64
08
10
20
4C
92
12
0C
00
00
ENDCHAR
STARTCHAR C0026
ENCODING -1 38
SWIDTH 692 0
DWIDTH 9 0
BBX 7 13 0 -2
BITMAP
30
48
88
88
90
60
60
90
8A
84
7A
00
00
ENDCHAR
STARTCHAR C0027
ENCODING -1 39
SWIDTH 692 0
DWIDTH 9 0
BBX 2 13 2 -2
BITMAP
C0
C0
40
40
00
00
00
00
00
00
00
00
00
ENDCHAR
STARTCHAR C0028
ENCODING -1 40
SWIDTH 692 0
DWIDTH 9 0
BBX 3 13 2 -2
BITMAP
20
40
80
80
80
80
80
80
80
40
20
00
00
ENDCHAR
STARTCHAR C0029
ENCODING -1 41
SWIDTH 692 0
DWIDTH 9 0
BBX 3 13 2 -2
BITMAP
80
40
20
20
20
20
20
20
20
40
80
00
00
ENDCHAR
STARTCHAR C002A
ENCODING -1 42
SWIDTH 692 0
DWIDTH 9 0
BBX 7 13 0 -2
BITMAP
00
00
92
54
38
FE
38
54
92
00
00
00
00
ENDCHAR
STARTCHAR C002B
ENCODING -1 43
SWIDTH 692 0
DWIDTH 9 0
BBX 7 13 0 -2
BITMAP
00
00
10
10
10
FE
10
10
10
00
00
00
00
ENDCHAR
STARTCHAR C002C
ENCODING -1 44
SWIDTH 692 0
DWIDTH 9 0
BBX 3 13 2 -2
BITMAP
00
00
00
00
00
00
00
60
60
40
80
00
00
ENDCHAR
STARTCHAR C002D
ENCODING -1 45
SWIDTH 692 0
DWIDTH 9 0
BBX 7 13 0 -2
BITMAP
00
00
00
00
00
FE
00
00
00
00
00
00
00
ENDCHAR
STARTCHAR C002E
ENCODING -1 46
SWIDTH 692 0
DWIDTH 9 0
BBX 2 13 2 -2
BITMAP
00
00
00
00
00
00
00
00
C0
C0
00
00
00
ENDCHAR
STARTCHAR C002F
ENCODING -1 47
SWIDTH 692 0
DWIDTH 9 0
BBX 6 13 1 -2
BITMAP
04
04
08
08
10
10
20
20
40
40
80
80
00
ENDCHAR
STARTCHAR C0030
ENCODING -1 48
SWIDTH 692 0
DWIDTH 9 0
BBX 7 13 0 -2
BITMAP
38
44
82
86
8A
92
A2
C2
82
44
38
00
00
ENDCHAR
STARTCHAR C0031
ENCODING -1 49
SWIDTH 692 0
DWIDTH 9 0
BBX 5 13 1 -2
BITMAP
20
60
A0
20
20
20
20
20
20
20
F8
00
00
ENDCHAR
STARTCHAR C0032
ENCODING -1 50
SWIDTH 692 0
DWIDTH 9 0
BBX 7 13 0 -2
BITMAP
7C
C6
02
04
08
10
20
40
80
80
FE
00
00
ENDCHAR
STARTCHAR C0033
ENCODING -1 51
SWIDTH 692 0
DWIDTH 9 0
BBX 7 13 0 -2
BITMAP
7C
C6
02
02
06
7C
06
02
02
C6
7C
00
00
ENDCHAR
STARTCHAR C0034
ENCODING -1 52
SWIDTH 692 0
DWIDTH 9 0
BBX 7 13 0 -2
BITMAP
08
18
28
48
88
FE
08
08
08
08
08
00
00
ENDCHAR
STARTCHAR C0035
ENCODING -1 53
SWIDTH 692 0
DWIDTH 9 0
BBX 7 13 0 -2
BITMAP
FE
80
80
80
80
FC
06
02
02
C6
7C
00
00
ENDCHAR
STARTCHAR C0036
ENCODING -1 54
SWIDTH 692 0
DWIDTH 9 0
BBX 7 13 0 -2
BITMAP
7C
C6
80
80
80
FC
86
82
82
C6
7C
00
00
ENDCHAR
STARTCHAR C0037
ENCODING -1 55
SWIDTH 692 0
DWIDTH 9 0
BBX 7 13 0 -2
BITMAP
FE
02
02
02
04
08
10
20
20
20
20
00
00
ENDCHAR
STARTCHAR C0038
ENCODING -1 56
SWIDTH 692 0
DWIDTH 9 0
BBX 7 13 0 -2
BITMAP
7C
C6
82
82
C6
7C
C6
82
82
C6
7C
00
00
ENDCHAR
STARTCHAR C0039
ENCODING -1 57
SWIDTH 692 0
DWIDTH 9 0
BBX 7 13 0 -2
BITMAP
7C
C6
82
82
C6
7A
02
02
02
C6
7C
00
00
ENDCHAR
STARTCHAR C003A
ENCODING -1 58
SWIDTH 692 0
DWIDTH 9 0
BBX 2 13 2 -2
BITMAP
00
00
00
00
C0
C0
00
00
C0
C0
00
00
00
ENDCHAR
STARTCHAR C003B
ENCODING -1 59
SWIDTH 692 0
DWIDTH 9 0
BBX 3 13 2 -2
BITMAP
00
00
00
60
60
00
00
60
60
40
80
00
00
ENDCHAR
STARTCHAR C003C
ENCODING -1 60
SWIDTH 692 0
DWIDTH 9 0
BBX 6 13 0 -2
BITMAP
04
08
10
20
40
80
40
20
10
08
04
00
00
ENDCHAR
STARTCHAR C003D
ENCODING -1 61
SWIDTH 692 0
DWIDTH 9 0
BBX 7 13 0 -2
BITMAP
00
00
00
00
FE
00
00
FE
00
00
00
00
00
ENDCHAR
STARTCHAR C003E
ENCODING -1 62
SWIDTH 692 0
DWIDTH 9 0
BBX 6 13 1 -2
BITMAP
80
40
20
10
08
04
08
10
20
40
80
00
00
ENDCHAR
STARTCHAR C003F
ENCODING -1 63
SWIDTH 692 0
DWIDTH 9 0
BBX 7 13 0 -2
BITMAP
7C
82
82
02
04
08
10
10
00
00
10
00
00
ENDCHAR
STARTCHAR C0040
ENCODING -1 64
SWIDTH 692 0
DWIDTH 9 0
BBX 7 13 0 -2
BITMAP
00
00
00
7E
82
BA
AA
BA
8E
80
7E
00
00
ENDCHAR
STARTCHAR C0041
ENCODING -1 65
SWIDTH 692 0
DWIDTH 9 0
BBX 7 13 0 -2
BITMAP
10
28
44
82
82
82
FE
82
82
82
82
00
00
ENDCHAR
STARTCHAR C0042
ENCODING -1 66
SWIDTH 692 0
DWIDTH 9 0
BBX 7 13 0 -2
BITMAP
FC
86
82
82
86
FC
86
82
82
86
FC
00
00
ENDCHAR
STARTCHAR C0043
ENCODING -1 67
SWIDTH 692 0
DWIDTH 9 0
BBX 7 13 0 -2
BITMAP
7C
C6
80
80
80
80
80
80
80
C6
7C
00
00
ENDCHAR
STARTCHAR C0044
ENCODING -1 68
SWIDTH 692 0
DWIDTH 9 0
BBX 7 13 0 -2
BITMAP
F8
8C
86
82
82
82
82
82
86
8C
F8
00
00
ENDCHAR
STARTCHAR C0045
ENCODING -1 69
SWIDTH 692 0
DWIDTH 9 0
BBX 7 13 0 -2
BITMAP
FE
80
80
80
80
F8
80
80
80
80
FE
00
00
ENDCHAR
STARTCHAR C0046
ENCODING -1 70
SWIDTH 692 0
DWIDTH 9 0
BBX 7 13 0 -2
BITMAP
FE
80
80
80
F8
80
80
80
80
80
80
00
00
ENDCHAR
STARTCHAR C0047
ENCODING -1 71
SWIDTH 692 0
DWIDTH 9 0
BBX 7 13 0 -2
BITMAP
7C
C6
80
80
80
80
8E
82
82
C6
7C
00
00
ENDCHAR
STARTCHAR C0048
ENCODING -1 72
SWIDTH 692 0
DWIDTH 9 0
BBX 7 13 0 -2
BITMAP
82
82
82
82
82
FE
82
82
82
82
82
00
00
ENDCHAR
STARTCHAR C0049
ENCODING -1 73
SWIDTH 692 0
DWIDTH 9 0
BBX 5 13 1 -2
BITMAP
F8
20
20
20
20
20
20
20
20
20
F8
00
00
ENDCHAR
STARTCHAR C004A
ENCODING -1 74
SWIDTH 692 0
DWIDTH 9 0
BBX 6 13 0 -2
BITMAP
04
04
04
04
04
04
04
04
84
CC
78
00
00
ENDCHAR
STARTCHAR C004B
ENCODING -1 75
SWIDTH 692 0
DWIDTH 9 0
BBX 7 13 0 -2
BITMAP
82
84
88
90
A0
C0
A0
90
88
84
82
00
00
ENDCHAR
STARTCHAR C004C
ENCODING -1 76
SWIDTH 692 0
DWIDTH 9 0
BBX 7 13 0 -2
BITMAP
80
80
80
80
80
80
80
80
80
80
FE
00
00
ENDCHAR
STARTCHAR C004D
ENCODING -1 77
SWIDTH 692 0
DWIDTH 9 0
BBX 7 13 0 -2
BITMAP
82
C6
AA
BA
92
82
82
82
82
82
82
00
00
ENDCHAR
STARTCHAR C004E
ENCODING -1 78
SWIDTH 692 0
DWIDTH 9 0
BBX 7 13 0 -2
BITMAP
C2
C2
E2
A2
B2
92
9A
8A
8E
86
86
00
00
ENDCHAR
STARTCHAR C004F
ENCODING -1 79
SWIDTH 692 0
DWIDTH 9 0
BBX 7 13 0 -2
BITMAP
7C
C6
82
82
82
82
82
82
82
C6
7C
00
00
ENDCHAR
STARTCHAR C0050
ENCODING -1 80
SWIDTH 692 0
DWIDTH 9 0
BBX 7 13 0 -2
BITMAP
FC
86
82
82
86
FC
80
80
80
80
80
00
00
ENDCHAR
STARTCHAR C0051
ENCODING -1 81
SWIDTH 692 0
DWIDTH 9 0
BBX 7 13 0 -2
BITMAP
38
44
82
82
82
82
82
92
9A
4C
3E
00
00
ENDCHAR
STARTCHAR C0052
ENCODING -1 82
SWIDTH 692 0
DWIDTH 9 0
BBX 7 13 0 -2
BITMAP
FC
86
82
82
86
FC
A0
90
88
84
82
00
00
ENDCHAR
STARTCHAR C0053
ENCODING -1 83
SWIDTH 692 0
DWIDTH 9 0
BBX 7 13 0 -2
BITMAP
7C
C6
80
80
C0
7C
06
02
02
C6
7C
00
00
ENDCHAR
STARTCHAR C0054
ENCODING -1 84
SWIDTH 692 0
DWIDTH 9 0
BBX 7 13 0 -2
BITMAP
FE
10
10
10
10
10
10
10
10
10
10
00
00
ENDCHAR
STARTCHAR C0055
ENCODING -1 85
SWIDTH 692 0
DWIDTH 9 0
BBX 7 13 0 -2
BITMAP
82
82
82
82
82
82
82
82
82
C6
7C
00
00
ENDCHAR
STARTCHAR C0056
ENCODING -1 86
SWIDTH 692 0
DWIDTH 9 0
BBX 7 13 0 -2
BITMAP
82
82
82
82
82
82
44
44
28
28
10
00
00
ENDCHAR
STARTCHAR C0057
ENCODING -1 87
SWIDTH 692 0
DWIDTH 9 0
BBX 7 13 0 -2
BITMAP
82
82
82
82
82
92
92
AA
AA
C6
82
00
00
ENDCHAR
STARTCHAR C0058
ENCODING -1 88
SWIDTH 692 0
DWIDTH 9 0
BBX 7 13 0 -2
BITMAP
82
44
44
28
28
10
28
28
44
44
82
00
00
ENDCHAR
STARTCHAR C0059
ENCODING -1 89
SWIDTH 692 0
DWIDTH 9 0
BBX 7 13 0 -2
BITMAP
82
44
44
28
28
10
10
10
10
10
10
00
00
ENDCHAR
STARTCHAR C005A
ENCODING -1 90
SWIDTH 692 0
DWIDTH 9 0
BBX 7 13 0 -2
BITMAP
FE
02
02
04
08
7C
20
40
80
80
FE
00
00
ENDCHAR
STARTCHAR C005B
ENCODING -1 91
SWIDTH 692 0
DWIDTH 9 0
BBX 3 13 2 -2
BITMAP
E0
80
80
80
80
80
80
80
80
80
E0
00
00
ENDCHAR
STARTCHAR C005C
ENCODING -1 92
SWIDTH 692 0
DWIDTH 9 0
BBX 6 13 1 -2
BITMAP
80
80
40
40
20
20
10
10
08
08
04
04
00
ENDCHAR
STARTCHAR C005D
ENCODING -1 93
SWIDTH 692 0
DWIDTH 9 0
BBX 3 13 2 -2
BITMAP
E0
20
20
20
20
20
20
20
20
20
E0
00
00
ENDCHAR
STARTCHAR C005E
ENCODING -1 94
SWIDTH 692 0
DWIDTH 9 0
BBX 7 13 0 -2
BITMAP
10
28
44
82
00
00
00
00
00
00
00
00
00
ENDCHAR
STARTCHAR C005F
ENCODING -1 95
SWIDTH 692 0
DWIDTH 9 0
BBX 7 13 0 -2
BITMAP
00
00
00
00
20
40
FE
40
20
00
00
00
00
ENDCHAR
STARTCHAR C0060
ENCODING -1 96
SWIDTH 692 0
DWIDTH 9 0
BBX 2 13 3 -2
BITMAP
C0
C0
80
80
00
00
00
00
00
00
00
00
00
ENDCHAR
STARTCHAR C0061
ENCODING -1 97
SWIDTH 692 0
DWIDTH 9 0
BBX 7 13 0 -2
BITMAP
00
00
00
00
7C
82
02
7E
82
82
7E
00
00
ENDCHAR
STARTCHAR C0062
ENCODING -1 98
SWIDTH 692 0
DWIDTH 9 0
BBX 7 13 0 -2
BITMAP
80
80
80
80
80
FC
82
82
82
82
FC
00
00
ENDCHAR
STARTCHAR C0063
ENCODING -1 99
SWIDTH 692 0
DWIDTH 9 0
BBX 7 13 0 -2
BITMAP
00
00
00
00
7C
82
80
80
80
82
7C
00
00
ENDCHAR
STARTCHAR C0064
ENCODING -1 100
SWIDTH 692 0
DWIDTH 9 0
BBX 7 13 0 -2
BITMAP
02
02
02
02
02
7E
82
82
82
82
7E
00
00
ENDCHAR
STARTCHAR C0065
ENCODING -1 101
SWIDTH 692 0
DWIDTH 9 0
BBX 7 13 0 -2
BITMAP
00
00
00
00
7C
82
82
FC
80
80
7E
00
00
ENDCHAR
STARTCHAR C0066
ENCODING -1 102
SWIDTH 692 0
DWIDTH 9 0
BBX 7 13 0 -2
BITMAP
1C
22
20
20
20
F8
20
20
20
20
20
00
00
ENDCHAR
STARTCHAR C0067
ENCODING -1 103
SWIDTH 692 0
DWIDTH 9 0
BBX 7 13 0 -2
BITMAP
00
00
00
00
7C
82
82
82
7E
02
02
82
7C
ENDCHAR
STARTCHAR C0068
ENCODING -1 104
SWIDTH 692 0
DWIDTH 9 0
BBX 7 13 0 -2
BITMAP
80
80
80
80
FC
82
82
82
82
82
82
00
00
ENDCHAR
STARTCHAR C0069
ENCODING -1 105
SWIDTH 692 0
DWIDTH 9 0
BBX 1 13 3 -2
BITMAP
00
80
00
00
80
80
80
80
80
80
80
00
00
ENDCHAR
STARTCHAR C006A
ENCODING -1 106
SWIDTH 692 0
DWIDTH 9 0
BBX 4 13 1 -2
BITMAP
00
10
00
00
10
10
10
10
10
10
10
90
60
ENDCHAR
STARTCHAR C006B
ENCODING -1 107
SWIDTH 692 0
DWIDTH 9 0
BBX 6 13 0 -2
BITMAP
80
80
80
80
84
88
90
A0
D0
88
84
00
00
ENDCHAR
STARTCHAR C006C
ENCODING -1 108
SWIDTH 692 0
DWIDTH 9 0
BBX 5 13 1 -2
BITMAP
E0
20
20
20
20
20
20
20
20
20
F8
00
00
ENDCHAR
STARTCHAR C006D
ENCODING -1 109
SWIDTH 692 0
DWIDTH 9 0
BBX 7 13 0 -2
BITMAP
00
00
00
00
EC
92
92
92
92
92
92
00
00
ENDCHAR
STARTCHAR C006E
ENCODING -1 110
SWIDTH 692 0
DWIDTH 9 0
BBX 6 13 0 -2
BITMAP
00
00
00
00
F8
84
84
84
84
84
84
00
00
ENDCHAR
STARTCHAR C006F
ENCODING -1 111
SWIDTH 692 0
DWIDTH 9 0
BBX 6 13 0 -2
BITMAP
00
00
00
00
78
84
84
84
84
84
78
00
00
ENDCHAR
STARTCHAR C0070
ENCODING -1 112
SWIDTH 692 0
DWIDTH 9 0
BBX 7 13 0 -2
BITMAP
00
00
00
00
FC
82
82
82
82
FC
80
80
80
ENDCHAR
STARTCHAR C0071
ENCODING -1 113
SWIDTH 692 0
DWIDTH 9 0
BBX 7 13 0 -2
BITMAP
00
00
00
00
7E
82
82
82
82
7E
02
02
02
ENDCHAR
STARTCHAR C0072
ENCODING -1 114
SWIDTH 692 0
DWIDTH 9 0
BBX 6 13 0 -2
BITMAP
00
00
00
00
BC
C0
80
80
80
80
80
00
00
ENDCHAR
STARTCHAR C0073
ENCODING -1 115
SWIDTH 692 0
DWIDTH 9 0
BBX 7 13 0 -2
BITMAP
00
00
00
00
7E
80
80
7C
02
02
FC
00
00
ENDCHAR
STARTCHAR C0074
ENCODING -1 116
SWIDTH 692 0
DWIDTH 9 0
BBX 6 13 0 -2
BITMAP
00
20
20
20
F8
20
20
20
20
24
18
00
00
ENDCHAR
STARTCHAR C0075
ENCODING -1 117
SWIDTH 692 0
DWIDTH 9 0
BBX 6 13 0 -2
BITMAP
00
00
00
00
84
84
84
84
84
84
7C
00
00
ENDCHAR
STARTCHAR C0076
ENCODING -1 118
SWIDTH 692 0
DWIDTH 9 0
BBX 7 13 0 -2
BITMAP
00
00
00
00
82
82
44
44
28
38
10
00
00
ENDCHAR
STARTCHAR C0077
ENCODING -1 119
SWIDTH 692 0
DWIDTH 9 0
BBX 7 13 0 -2
BITMAP
00
00
00
00
82
82
82
92
AA
C6
82
00
00
ENDCHAR
STARTCHAR C0078
ENCODING -1 120
SWIDTH 692 0
DWIDTH 9 0
BBX 7 13 0 -2
BITMAP
00
00
00
00
82
44
28
10
28
44
82
00
00
ENDCHAR
STARTCHAR C0079
ENCODING -1 121
SWIDTH 692 0
DWIDTH 9 0
BBX 7 13 0 -2
BITMAP
00
00
00
00
82
44
44
28
10
20
40
40
80
ENDCHAR
STARTCHAR C007A
ENCODING -1 122
SWIDTH 692 0
DWIDTH 9 0
BBX 7 13 0 -2
BITMAP
00
00
00
00
FE
04
08
10
20
40
FE
00
00
ENDCHAR
STARTCHAR C007B
ENCODING -1 123
SWIDTH 692 0
DWIDTH 9 0
BBX 7 13 0 -2
BITMAP
0E
10
10
10
30
E0
30
10
10
10
0E
00
00
ENDCHAR
STARTCHAR C007C
ENCODING -1 124
SWIDTH 692 0
DWIDTH 9 0
BBX 1 13 3 -2
BITMAP
80
80
80
80
80
80
80
80
80
80
80
80
80
ENDCHAR
STARTCHAR C007D
ENCODING -1 125
SWIDTH 692 0
DWIDTH 9 0
BBX 7 13 0 -2
BITMAP
E0
10
10
10
18
0E
18
10
10
10
E0
00
00
ENDCHAR
STARTCHAR C007E
ENCODING -1 126
SWIDTH 692 0
DWIDTH 9 0
BBX 7 13 0 -2
BITMAP
00
00
00
00
9C
72
00
00
00
00
00
00
00
ENDCHAR
ENDFONT
